<svg width="29" height="29" viewBox="0 0 29 29" fill="none" xmlns="http://www.w3.org/2000/svg">
<path d="M1.61111 16.1111H11.2778C12.1639 16.1111 12.8889 15.3861 12.8889 14.5V1.61111C12.8889 0.725 12.1639 0 11.2778 0H1.61111C0.725 0 0 0.725 0 1.61111V14.5C0 15.3861 0.725 16.1111 1.61111 16.1111ZM1.61111 29H11.2778C12.1639 29 12.8889 28.275 12.8889 27.3889V20.9444C12.8889 20.0583 12.1639 19.3333 11.2778 19.3333H1.61111C0.725 19.3333 0 20.0583 0 20.9444V27.3889C0 28.275 0.725 29 1.61111 29ZM17.7222 29H27.3889C28.275 29 29 28.275 29 27.3889V14.5C29 13.6139 28.275 12.8889 27.3889 12.8889H17.7222C16.8361 12.8889 16.1111 13.6139 16.1111 14.5V27.3889C16.1111 28.275 16.8361 29 17.7222 29ZM16.1111 1.61111V8.05556C16.1111 8.94167 16.8361 9.66667 17.7222 9.66667H27.3889C28.275 9.66667 29 8.94167 29 8.05556V1.61111C29 0.725 28.275 0 27.3889 0H17.7222C16.8361 0 16.1111 0.725 16.1111 1.61111Z" fill="#D3D3D3"/>
</svg>
