<svg width="50" height="50" viewBox="0 0 50 50" fill="none" xmlns="http://www.w3.org/2000/svg">
<path d="M25 0C20.142 0.00922211 15.3915 1.42976 11.3271 4.08857C7.26275 6.74739 4.05997 10.5297 2.10887 14.9749C0.157781 19.4201 -0.457414 24.3362 0.338223 29.1245C1.13386 33.9128 3.30599 38.3666 6.59003 41.9434C8.93554 44.4836 11.7822 46.5109 14.9508 47.8975C18.1193 49.2841 21.5409 50 25 50C28.4591 50 31.8807 49.2841 35.0492 47.8975C38.2178 46.5109 41.0645 44.4836 43.41 41.9434C46.694 38.3666 48.8661 33.9128 49.6618 29.1245C50.4574 24.3362 49.8422 19.4201 47.8911 14.9749C45.94 10.5297 42.7373 6.74739 38.6729 4.08857C34.6085 1.42976 29.858 0.00922211 25 0ZM25 45.0466C19.8113 45.0387 14.828 43.0202 11.0986 39.4157C12.2309 36.6617 14.157 34.3062 16.6322 32.6485C19.1075 30.9907 22.0201 30.1056 25 30.1056C27.9799 30.1056 30.8925 30.9907 33.3678 32.6485C35.843 34.3062 37.7691 36.6617 38.9014 39.4157C35.172 43.0202 30.1887 45.0387 25 45.0466ZM19.9905 20.0207C19.9905 19.0308 20.2843 18.0631 20.8347 17.24C21.3852 16.4169 22.1676 15.7753 23.0829 15.3965C23.9983 15.0177 25.0056 14.9186 25.9773 15.1117C26.9491 15.3048 27.8417 15.7815 28.5423 16.4815C29.2429 17.1815 29.72 18.0733 29.9133 19.0442C30.1066 20.0151 30.0073 21.0215 29.6282 21.9361C29.249 22.8507 28.6069 23.6324 27.7831 24.1823C26.9593 24.7323 25.9908 25.0259 25 25.0259C23.6714 25.0259 22.3972 24.4985 21.4577 23.5599C20.5183 22.6212 19.9905 21.3481 19.9905 20.0207ZM42.3079 35.0362C40.07 31.2117 36.6256 28.2368 32.5143 26.5775C33.7896 25.1326 34.6206 23.3508 34.9075 21.4458C35.1944 19.5407 34.925 17.5935 34.1317 15.8376C33.3384 14.0818 32.0549 12.5919 30.4351 11.5468C28.8153 10.5018 26.9281 9.9459 25 9.9459C23.0719 9.9459 21.1847 10.5018 19.5649 11.5468C17.9451 12.5919 16.6616 14.0818 15.8683 15.8376C15.075 17.5935 14.8056 19.5407 15.0925 21.4458C15.3794 23.3508 16.2104 25.1326 17.4857 26.5775C13.3744 28.2368 9.93005 31.2117 7.69213 35.0362C5.9086 32.0008 4.96625 28.5457 4.96194 25.0259C4.96194 19.716 7.07309 14.6237 10.831 10.8691C14.5888 7.11449 19.6856 5.00517 25 5.00517C30.3144 5.00517 35.4112 7.11449 39.1691 10.8691C42.9269 14.6237 45.0381 19.716 45.0381 25.0259C45.0338 28.5457 44.0914 32.0008 42.3079 35.0362Z" fill="white"/>
</svg>
